<?xml version="1.0" encoding="UTF-8" standalone="no"?>
<!DOCTYPE svg PUBLIC "-//W3C//DTD SVG 1.1//EN"
 "http://www.w3.org/Graphics/SVG/1.1/DTD/svg11.dtd">
<!-- Generated by graphviz version 2.38.0 (20140413.2041)
 -->
<!-- Title: models_diagram Pages: 1 -->
<svg width="918pt" height="303pt"
 viewBox="0.00 0.00 918.00 303.00" xmlns="http://www.w3.org/2000/svg" xmlns:xlink="http://www.w3.org/1999/xlink">
<g id="graph0" class="graph" transform="scale(1 1) rotate(0) translate(4 299)">
<title>models_diagram</title>
<polygon fill="none" stroke="none" points="-4,4 -4,-299 914,-299 914,4 -4,4"/>
<!-- _diagram_info -->
<g id="node1" class="node"><title>_diagram_info</title>
<text text-anchor="start" x="8" y="-266.1" font-family="Times,serif" font-size="13.00">Models diagram</text>
<text text-anchor="start" x="8" y="-252.1" font-family="Times,serif" font-size="13.00">Date: Feb 22 2017 &#45; 11:43</text>
<text text-anchor="start" x="8" y="-238.1" font-family="Times,serif" font-size="13.00">Migration version: 20170222142446</text>
<text text-anchor="start" x="8" y="-224.1" font-family="Times,serif" font-size="13.00">Generated by RailRoady 1.5.2</text>
<text text-anchor="start" x="8" y="-210.1" font-family="Times,serif" font-size="13.00">http://railroady.prestonlee.com</text>
</g>
<!-- ApplicationRecord -->
<g id="node2" class="node"><title>ApplicationRecord</title>
<ellipse fill="none" stroke="black" cx="309" cy="-241.5" rx="77.1866" ry="18"/>
<text text-anchor="middle" x="309" y="-237.8" font-family="Times,serif" font-size="14.00">ApplicationRecord</text>
</g>
<!-- Category -->
<g id="node3" class="node"><title>Category</title>
<path fill="none" stroke="black" d="M416,-196C416,-196 636,-196 636,-196 642,-196 648,-202 648,-208 648,-208 648,-275 648,-275 648,-281 642,-287 636,-287 636,-287 416,-287 416,-287 410,-287 404,-281 404,-275 404,-275 404,-208 404,-208 404,-202 410,-196 416,-196"/>
<text text-anchor="middle" x="526" y="-271.8" font-family="Times,serif" font-size="14.00">Category</text>
<polyline fill="none" stroke="black" points="404,-264 648,-264 "/>
<text text-anchor="start" x="412" y="-248.8" font-family="Times,serif" font-size="14.00">id :integer</text>
<text text-anchor="start" x="412" y="-233.8" font-family="Times,serif" font-size="14.00">name :character varying</text>
<text text-anchor="start" x="412" y="-218.8" font-family="Times,serif" font-size="14.00">created_at :timestamp without time zone</text>
<text text-anchor="start" x="412" y="-203.8" font-family="Times,serif" font-size="14.00">updated_at :timestamp without time zone</text>
</g>
<!-- Item -->
<g id="node4" class="node"><title>Item</title>
<path fill="none" stroke="black" d="M547,-0.5C547,-0.5 767,-0.5 767,-0.5 773,-0.5 779,-6.5 779,-12.5 779,-12.5 779,-139.5 779,-139.5 779,-145.5 773,-151.5 767,-151.5 767,-151.5 547,-151.5 547,-151.5 541,-151.5 535,-145.5 535,-139.5 535,-139.5 535,-12.5 535,-12.5 535,-6.5 541,-0.5 547,-0.5"/>
<text text-anchor="middle" x="657" y="-136.3" font-family="Times,serif" font-size="14.00">Item</text>
<polyline fill="none" stroke="black" points="535,-128.5 779,-128.5 "/>
<text text-anchor="start" x="543" y="-113.3" font-family="Times,serif" font-size="14.00">id :integer</text>
<text text-anchor="start" x="543" y="-98.3" font-family="Times,serif" font-size="14.00">created_at :timestamp without time zone</text>
<text text-anchor="start" x="543" y="-83.3" font-family="Times,serif" font-size="14.00">updated_at :timestamp without time zone</text>
<text text-anchor="start" x="543" y="-68.3" font-family="Times,serif" font-size="14.00">serialnumber :integer</text>
<text text-anchor="start" x="543" y="-53.3" font-family="Times,serif" font-size="14.00">size :integer</text>
<text text-anchor="start" x="543" y="-38.3" font-family="Times,serif" font-size="14.00">description :text</text>
<text text-anchor="start" x="543" y="-23.3" font-family="Times,serif" font-size="14.00">category_id :integer</text>
<text text-anchor="start" x="543" y="-8.3" font-family="Times,serif" font-size="14.00">user_id :integer</text>
</g>
<!-- Category&#45;&gt;Item -->
<g id="edge1" class="edge"><title>Category&#45;&gt;Item</title>
<path fill="none" stroke="#b78662" d="M567.006,-189.321C574.532,-179.928 582.562,-169.906 590.61,-159.861"/>
<ellipse fill="none" stroke="#b78662" cx="564.297" cy="-192.701" rx="4.00002" ry="4.00002"/>
<polygon fill="#b78662" stroke="#b78662" points="590.806,-159.616 600.571,-154.626 593.933,-155.714 597.059,-151.812 597.059,-151.812 597.059,-151.812 593.933,-155.714 593.547,-148.998 590.806,-159.616 590.806,-159.616"/>
</g>
<!-- User -->
<g id="node5" class="node"><title>User</title>
<path fill="none" stroke="black" d="M678,-188.5C678,-188.5 898,-188.5 898,-188.5 904,-188.5 910,-194.5 910,-200.5 910,-200.5 910,-282.5 910,-282.5 910,-288.5 904,-294.5 898,-294.5 898,-294.5 678,-294.5 678,-294.5 672,-294.5 666,-288.5 666,-282.5 666,-282.5 666,-200.5 666,-200.5 666,-194.5 672,-188.5 678,-188.5"/>
<text text-anchor="middle" x="788" y="-279.3" font-family="Times,serif" font-size="14.00">User</text>
<polyline fill="none" stroke="black" points="666,-271.5 910,-271.5 "/>
<text text-anchor="start" x="674" y="-256.3" font-family="Times,serif" font-size="14.00">id :integer</text>
<text text-anchor="start" x="674" y="-241.3" font-family="Times,serif" font-size="14.00">name :character varying</text>
<text text-anchor="start" x="674" y="-226.3" font-family="Times,serif" font-size="14.00">email :character varying</text>
<text text-anchor="start" x="674" y="-211.3" font-family="Times,serif" font-size="14.00">created_at :timestamp without time zone</text>
<text text-anchor="start" x="674" y="-196.3" font-family="Times,serif" font-size="14.00">updated_at :timestamp without time zone</text>
</g>
<!-- User&#45;&gt;Item -->
<g id="edge2" class="edge"><title>User&#45;&gt;Item</title>
<path fill="none" stroke="#a37b39" d="M741.078,-181.937C735.296,-174.721 729.303,-167.241 723.302,-159.751"/>
<ellipse fill="none" stroke="#a37b39" cx="743.689" cy="-185.196" rx="4.00002" ry="4.00002"/>
<polygon fill="#a37b39" stroke="#a37b39" points="723.048,-159.434 720.307,-148.816 719.922,-155.532 716.795,-151.63 716.795,-151.63 716.795,-151.63 719.922,-155.532 713.283,-154.444 723.048,-159.434 723.048,-159.434"/>
</g>
</g>
</svg>
