<?xml version="1.0" encoding="UTF-8" standalone="no"?>
<!DOCTYPE svg PUBLIC "-//W3C//DTD SVG 1.1//EN"
 "http://www.w3.org/Graphics/SVG/1.1/DTD/svg11.dtd">
<!-- Generated by graphviz version 2.38.0 (20140413.2041)
 -->
<!-- Title: models_diagram Pages: 1 -->
<svg width="570pt" height="158pt"
 viewBox="0.00 0.00 570.30 158.00" xmlns="http://www.w3.org/2000/svg" xmlns:xlink="http://www.w3.org/1999/xlink">
<g id="graph0" class="graph" transform="scale(1 1) rotate(0) translate(4 154)">
<title>models_diagram</title>
<polygon fill="none" stroke="none" points="-4,4 -4,-154 566.298,-154 566.298,4 -4,4"/>
<!-- _diagram_info -->
<g id="node1" class="node"><title>_diagram_info</title>
<text text-anchor="start" x="8" y="-135.6" font-family="Times,serif" font-size="13.00">Models diagram</text>
<text text-anchor="start" x="8" y="-121.6" font-family="Times,serif" font-size="13.00">Date: Feb 22 2017 &#45; 11:40</text>
<text text-anchor="start" x="8" y="-107.6" font-family="Times,serif" font-size="13.00">Migration version: 20170222142446</text>
<text text-anchor="start" x="8" y="-93.6" font-family="Times,serif" font-size="13.00">Generated by RailRoady 1.5.2</text>
<text text-anchor="start" x="8" y="-79.6" font-family="Times,serif" font-size="13.00">http://railroady.prestonlee.com</text>
</g>
<!-- ApplicationRecord -->
<g id="node2" class="node"><title>ApplicationRecord</title>
<ellipse fill="none" stroke="black" cx="309" cy="-111" rx="77.1866" ry="18"/>
<text text-anchor="middle" x="309" y="-107.3" font-family="Times,serif" font-size="14.00">ApplicationRecord</text>
</g>
<!-- Category -->
<g id="node3" class="node"><title>Category</title>
<ellipse fill="none" stroke="black" cx="447" cy="-111" rx="42.7926" ry="18"/>
<text text-anchor="middle" x="447" y="-107.3" font-family="Times,serif" font-size="14.00">Category</text>
</g>
<!-- Item -->
<g id="node4" class="node"><title>Item</title>
<ellipse fill="none" stroke="black" cx="491" cy="-18" rx="27.0966" ry="18"/>
<text text-anchor="middle" x="491" y="-14.3" font-family="Times,serif" font-size="14.00">Item</text>
</g>
<!-- Category&#45;&gt;Item -->
<g id="edge1" class="edge"><title>Category&#45;&gt;Item</title>
<path fill="none" stroke="#7b3020" d="M458.664,-85.8765C464.823,-73.139 472.38,-57.509 478.64,-44.5631"/>
<ellipse fill="none" stroke="#7b3020" cx="456.812" cy="-89.7081" rx="4.00002" ry="4.00002"/>
<polygon fill="#7b3020" stroke="#7b3020" points="478.776,-44.2817 487.18,-37.2377 480.952,-39.7802 483.129,-35.2788 483.129,-35.2788 483.129,-35.2788 480.952,-39.7802 479.078,-33.3199 478.776,-44.2817 478.776,-44.2817"/>
</g>
<!-- User -->
<g id="node5" class="node"><title>User</title>
<ellipse fill="none" stroke="black" cx="535" cy="-111" rx="27.0966" ry="18"/>
<text text-anchor="middle" x="535" y="-107.3" font-family="Times,serif" font-size="14.00">User</text>
</g>
<!-- User&#45;&gt;Item -->
<g id="edge2" class="edge"><title>User&#45;&gt;Item</title>
<path fill="none" stroke="#50b99f" d="M523.546,-86.3102C517.386,-73.5711 509.782,-57.8442 503.473,-44.7965"/>
<ellipse fill="none" stroke="#50b99f" cx="525.392" cy="-90.1299" rx="4.00002" ry="4.00002"/>
<polygon fill="#50b99f" stroke="#50b99f" points="503.3,-44.4378 502.998,-33.4761 501.123,-39.9364 498.947,-35.4349 498.947,-35.4349 498.947,-35.4349 501.123,-39.9364 494.895,-37.3938 503.3,-44.4378 503.3,-44.4378"/>
</g>
</g>
</svg>
