<?xml version="1.0" encoding="UTF-8" standalone="no"?>
<!DOCTYPE svg PUBLIC "-//W3C//DTD SVG 1.1//EN"
 "http://www.w3.org/Graphics/SVG/1.1/DTD/svg11.dtd">
<!-- Generated by graphviz version 2.38.0 (20140413.2041)
 -->
<!-- Title: models_diagram Pages: 1 -->
<svg width="656pt" height="273pt"
 viewBox="0.00 0.00 656.00 273.00" xmlns="http://www.w3.org/2000/svg" xmlns:xlink="http://www.w3.org/1999/xlink">
<g id="graph0" class="graph" transform="scale(1 1) rotate(0) translate(4 269)">
<title>models_diagram</title>
<polygon fill="none" stroke="none" points="-4,4 -4,-269 652,-269 652,4 -4,4"/>
<!-- _diagram_info -->
<g id="node1" class="node"><title>_diagram_info</title>
<text text-anchor="start" x="8" y="-243.6" font-family="Times,serif" font-size="13.00">Models diagram</text>
<text text-anchor="start" x="8" y="-229.6" font-family="Times,serif" font-size="13.00">Date: Feb 22 2017 &#45; 11:14</text>
<text text-anchor="start" x="8" y="-215.6" font-family="Times,serif" font-size="13.00">Migration version: 20170222141402</text>
<text text-anchor="start" x="8" y="-201.6" font-family="Times,serif" font-size="13.00">Generated by RailRoady 1.5.2</text>
<text text-anchor="start" x="8" y="-187.6" font-family="Times,serif" font-size="13.00">http://railroady.prestonlee.com</text>
</g>
<!-- ApplicationRecord -->
<g id="node2" class="node"><title>ApplicationRecord</title>
<ellipse fill="none" stroke="black" cx="309" cy="-219" rx="77.1866" ry="18"/>
<text text-anchor="middle" x="309" y="-215.3" font-family="Times,serif" font-size="14.00">ApplicationRecord</text>
</g>
<!-- Category -->
<g id="node3" class="node"><title>Category</title>
<path fill="none" stroke="black" d="M416,-173.5C416,-173.5 636,-173.5 636,-173.5 642,-173.5 648,-179.5 648,-185.5 648,-185.5 648,-252.5 648,-252.5 648,-258.5 642,-264.5 636,-264.5 636,-264.5 416,-264.5 416,-264.5 410,-264.5 404,-258.5 404,-252.5 404,-252.5 404,-185.5 404,-185.5 404,-179.5 410,-173.5 416,-173.5"/>
<text text-anchor="middle" x="526" y="-249.3" font-family="Times,serif" font-size="14.00">Category</text>
<polyline fill="none" stroke="black" points="404,-241.5 648,-241.5 "/>
<text text-anchor="start" x="412" y="-226.3" font-family="Times,serif" font-size="14.00">id :integer</text>
<text text-anchor="start" x="412" y="-211.3" font-family="Times,serif" font-size="14.00">name :character varying</text>
<text text-anchor="start" x="412" y="-196.3" font-family="Times,serif" font-size="14.00">created_at :timestamp without time zone</text>
<text text-anchor="start" x="412" y="-181.3" font-family="Times,serif" font-size="14.00">updated_at :timestamp without time zone</text>
</g>
<!-- Item -->
<g id="node4" class="node"><title>Item</title>
<path fill="none" stroke="black" d="M416,-0.5C416,-0.5 636,-0.5 636,-0.5 642,-0.5 648,-6.5 648,-12.5 648,-12.5 648,-124.5 648,-124.5 648,-130.5 642,-136.5 636,-136.5 636,-136.5 416,-136.5 416,-136.5 410,-136.5 404,-130.5 404,-124.5 404,-124.5 404,-12.5 404,-12.5 404,-6.5 410,-0.5 416,-0.5"/>
<text text-anchor="middle" x="526" y="-121.3" font-family="Times,serif" font-size="14.00">Item</text>
<polyline fill="none" stroke="black" points="404,-113.5 648,-113.5 "/>
<text text-anchor="start" x="412" y="-98.3" font-family="Times,serif" font-size="14.00">id :integer</text>
<text text-anchor="start" x="412" y="-83.3" font-family="Times,serif" font-size="14.00">created_at :timestamp without time zone</text>
<text text-anchor="start" x="412" y="-68.3" font-family="Times,serif" font-size="14.00">updated_at :timestamp without time zone</text>
<text text-anchor="start" x="412" y="-53.3" font-family="Times,serif" font-size="14.00">serialnumber :integer</text>
<text text-anchor="start" x="412" y="-38.3" font-family="Times,serif" font-size="14.00">size :integer</text>
<text text-anchor="start" x="412" y="-23.3" font-family="Times,serif" font-size="14.00">description :text</text>
<text text-anchor="start" x="412" y="-8.3" font-family="Times,serif" font-size="14.00">category_id :integer</text>
</g>
<!-- Category&#45;&gt;Item -->
<g id="edge1" class="edge"><title>Category&#45;&gt;Item</title>
<path fill="none" stroke="#b87f0d" d="M526,-165.386C526,-159.259 526,-152.916 526,-146.546"/>
<ellipse fill="none" stroke="#b87f0d" cx="526" cy="-169.445" rx="4" ry="4"/>
<polygon fill="#b87f0d" stroke="#b87f0d" points="526,-146.541 530.5,-136.541 526,-141.541 526,-136.541 526,-136.541 526,-136.541 526,-141.541 521.5,-136.541 526,-146.541 526,-146.541"/>
</g>
</g>
</svg>
